REM DIRINDEX 1\2,1\3,1\4,1\6,1\5\7,1\5\8
REM DIRNAME cjc114,folder01,folder02,folder03,folder04,folder05,folder06,folder07
TITLE ""
FILE "DB4500_5th_4B_34.mp3" MP3
  TRACK 01 AUDIO
    TITLE "0:"
    INDEX 01 00:00:00
  TRACK 02 AUDIO
    TITLE "2:cjc114_2834"
    INDEX 01 00:00:05
  TRACK 03 AUDIO
    TITLE "0:"
    INDEX 01 00:01:05
  TRACK 04 AUDIO
    TITLE "3:cjc114_2835"
    INDEX 01 00:01:32
  TRACK 05 AUDIO
    TITLE "0:"
    INDEX 01 00:02:49
  TRACK 06 AUDIO
    TITLE "4:cjc114_2836"
    INDEX 01 00:03:04
  TRACK 07 AUDIO
    TITLE "0:"
    INDEX 01 00:06:16
  TRACK 08 AUDIO
    TITLE "2:cjc114_2837"
    INDEX 01 00:06:71
  TRACK 09 AUDIO
    TITLE "0:"
    INDEX 01 00:07:72
  TRACK 10 AUDIO
    TITLE "3:cjc114_2838"
    INDEX 01 00:08:26
  TRACK 11 AUDIO
    TITLE "0:"
    INDEX 01 00:09:49
  TRACK 12 AUDIO
    TITLE "4:cjc114_2839"
    INDEX 01 00:10:04
  TRACK 13 AUDIO
    TITLE "0:"
    INDEX 01 00:14:02
  TRACK 14 AUDIO
    TITLE "2:cjc114_2840"
    INDEX 01 00:14:56
  TRACK 15 AUDIO
    TITLE "0:"
    INDEX 01 00:15:54
  TRACK 16 AUDIO
    TITLE "3:cjc114_2841"
    INDEX 01 00:16:08
  TRACK 17 AUDIO
    TITLE "0:"
    INDEX 01 00:17:23
  TRACK 18 AUDIO
    TITLE "4:cjc114_2842"
    INDEX 01 00:17:53
  TRACK 19 AUDIO
    TITLE "0:"
    INDEX 01 00:20:30
  TRACK 20 AUDIO
    TITLE "2:cjc114_2843"
    INDEX 01 00:21:08
  TRACK 21 AUDIO
    TITLE "0:"
    INDEX 01 00:22:17
  TRACK 22 AUDIO
    TITLE "3:cjc114_2844"
    INDEX 01 00:22:46
  TRACK 23 AUDIO
    TITLE "0:"
    INDEX 01 00:23:67
  TRACK 24 AUDIO
    TITLE "4:cjc114_2845"
    INDEX 01 00:24:24
  TRACK 25 AUDIO
    TITLE "0:"
    INDEX 01 00:27:12
  TRACK 26 AUDIO
    TITLE "2:cjc114_2846"
    INDEX 01 00:27:67
  TRACK 27 AUDIO
    TITLE "0:"
    INDEX 01 00:29:01
  TRACK 28 AUDIO
    TITLE "3:cjc114_2847"
    INDEX 01 00:29:29
  TRACK 29 AUDIO
    TITLE "0:"
    INDEX 01 00:30:59
  TRACK 30 AUDIO
    TITLE "4:cjc114_2848"
    INDEX 01 00:31:14
  TRACK 31 AUDIO
    TITLE "0:"
    INDEX 01 00:35:19
  TRACK 32 AUDIO
    TITLE "2:cjc114_2849"
    INDEX 01 00:35:74
  TRACK 33 AUDIO
    TITLE "0:"
    INDEX 01 00:37:07
  TRACK 34 AUDIO
    TITLE "3:cjc114_2850"
    INDEX 01 00:37:34
  TRACK 35 AUDIO
    TITLE "0:"
    INDEX 01 00:38:57
  TRACK 36 AUDIO
    TITLE "4:cjc114_2851"
    INDEX 01 00:39:07
  TRACK 37 AUDIO
    TITLE "0:"
    INDEX 01 00:41:57
  TRACK 38 AUDIO
    TITLE "2:cjc114_2852"
    INDEX 01 00:42:35
  TRACK 39 AUDIO
    TITLE "0:"
    INDEX 01 00:43:29
  TRACK 40 AUDIO
    TITLE "3:cjc114_2853"
    INDEX 01 00:43:58
  TRACK 41 AUDIO
    TITLE "0:"
    INDEX 01 00:44:50
  TRACK 42 AUDIO
    TITLE "4:cjc114_2854"
    INDEX 01 00:45:00
  TRACK 43 AUDIO
    TITLE "0:"
    INDEX 01 00:48:73
  TRACK 44 AUDIO
    TITLE "2:cjc114_2855"
    INDEX 01 00:49:51
  TRACK 45 AUDIO
    TITLE "0:"
    INDEX 01 00:50:44
  TRACK 46 AUDIO
    TITLE "3:cjc114_2856"
    INDEX 01 00:50:74
  TRACK 47 AUDIO
    TITLE "0:"
    INDEX 01 00:52:12
  TRACK 48 AUDIO
    TITLE "4:cjc114_2857"
    INDEX 01 00:52:43
  TRACK 49 AUDIO
    TITLE "0:"
    INDEX 01 00:57:31
  TRACK 50 AUDIO
    TITLE "2:cjc114_2858"
    INDEX 01 00:58:09
  TRACK 51 AUDIO
    TITLE "0:"
    INDEX 01 00:59:12
  TRACK 52 AUDIO
    TITLE "3:cjc114_2859"
    INDEX 01 00:59:41
  TRACK 53 AUDIO
    TITLE "0:"
    INDEX 01 01:01:11
  TRACK 54 AUDIO
    TITLE "4:cjc114_2860"
    INDEX 01 01:01:40
  TRACK 55 AUDIO
    TITLE "0:"
    INDEX 01 01:04:27
  TRACK 56 AUDIO
    TITLE "2:cjc114_2861"
    INDEX 01 01:05:05
  TRACK 57 AUDIO
    TITLE "0:"
    INDEX 01 01:06:06
  TRACK 58 AUDIO
    TITLE "3:cjc114_2862"
    INDEX 01 01:06:36
  TRACK 59 AUDIO
    TITLE "0:"
    INDEX 01 01:07:63
  TRACK 60 AUDIO
    TITLE "4:cjc114_2863"
    INDEX 01 01:08:13
  TRACK 61 AUDIO
    TITLE "0:"
    INDEX 01 01:10:49
  TRACK 62 AUDIO
    TITLE "2:cjc114_2864"
    INDEX 01 01:11:25
  TRACK 63 AUDIO
    TITLE "0:"
    INDEX 01 01:12:30
  TRACK 64 AUDIO
    TITLE "3:cjc114_2865"
    INDEX 01 01:12:62
  TRACK 65 AUDIO
    TITLE "0:"
    INDEX 01 01:13:61
  TRACK 66 AUDIO
    TITLE "4:cjc114_2866"
    INDEX 01 01:14:14
  TRACK 67 AUDIO
    TITLE "0:"
    INDEX 01 01:16:60
  TRACK 68 AUDIO
    TITLE "2:cjc114_2867"
    INDEX 01 01:17:37
  TRACK 69 AUDIO
    TITLE "0:"
    INDEX 01 01:18:45
  TRACK 70 AUDIO
    TITLE "3:cjc114_2868"
    INDEX 01 01:18:74
  TRACK 71 AUDIO
    TITLE "0:"
    INDEX 01 01:20:18
  TRACK 72 AUDIO
    TITLE "4:cjc114_2869"
    INDEX 01 01:20:48
  TRACK 73 AUDIO
    TITLE "0:"
    INDEX 01 01:23:09
  TRACK 74 AUDIO
    TITLE "2:cjc114_2870"
    INDEX 01 01:23:63
  TRACK 75 AUDIO
    TITLE "0:"
    INDEX 01 01:24:67
  TRACK 76 AUDIO
    TITLE "3:cjc114_2871"
    INDEX 01 01:25:21
  TRACK 77 AUDIO
    TITLE "0:"
    INDEX 01 01:26:68
  TRACK 78 AUDIO
    TITLE "4:cjc114_2872"
    INDEX 01 01:27:20
  TRACK 79 AUDIO
    TITLE "0:"
    INDEX 01 01:30:07
  TRACK 80 AUDIO
    TITLE "2:cjc114_2873"
    INDEX 01 01:30:58
  TRACK 81 AUDIO
    TITLE "0:"
    INDEX 01 01:31:71
  TRACK 82 AUDIO
    TITLE "3:cjc114_2874"
    INDEX 01 01:32:25
  TRACK 83 AUDIO
    TITLE "0:"
    INDEX 01 01:33:58
  TRACK 84 AUDIO
    TITLE "4:cjc114_2875"
    INDEX 01 01:34:08
  TRACK 85 AUDIO
    TITLE "0:"
    INDEX 01 01:38:08
  TRACK 86 AUDIO
    TITLE "2:cjc114_2876"
    INDEX 01 01:38:63
  TRACK 87 AUDIO
    TITLE "0:"
    INDEX 01 01:39:59
  TRACK 88 AUDIO
    TITLE "3:cjc114_2877"
    INDEX 01 01:40:13
  TRACK 89 AUDIO
    TITLE "0:"
    INDEX 01 01:41:24
  TRACK 90 AUDIO
    TITLE "4:cjc114_2878"
    INDEX 01 01:41:54
  TRACK 91 AUDIO
    TITLE "0:"
    INDEX 01 01:44:72
